<svg width="3953" height="867" xmlns="http://www.w3.org/2000/svg" xmlns:xlink="http://www.w3.org/1999/xlink" xml:space="preserve" overflow="hidden"><g transform="translate(-205 -613)"><rect x="222.5" y="639.5" width="3933" height="837" stroke="#FFFFFF" stroke-width="4.58333" stroke-miterlimit="8" fill="#FFFFFF"/><rect x="1781.5" y="761.5" width="2356" height="703" stroke="#404040" stroke-width="4.58333" stroke-miterlimit="8" fill="#FFFFFF"/><text fill="#4472C4" font-family="Calibri,Calibri_MSFontService,sans-serif" font-weight="700" font-size="83" transform="matrix(1 0 0 1 2670.52 838)">GPU Loop Kernel</text><rect x="1820.5" y="1328.5" width="2269" height="105" stroke="#404040" stroke-width="4.58333" stroke-miterlimit="8" fill="#FFFFFF"/><text font-family="Calibri,Calibri_MSFontService,sans-serif" font-weight="400" font-size="83" transform="matrix(1 0 0 1 2727.31 1408)">NVIDIA CUDA</text><rect x="1820.5" y="1040.5" width="1117" height="257" stroke="#404040" stroke-width="4.58333" stroke-miterlimit="8" fill="#FFFFFF"/><text font-family="Calibri,Calibri_MSFontService,sans-serif" font-weight="400" font-size="83" transform="matrix(1 0 0 1 2083.95 1152)">Computation OPs</text><text font-family="Calibri,Calibri_MSFontService,sans-serif" font-weight="400" font-size="73" transform="matrix(1 0 0 1 2179.33 1243)">(</text><text font-family="Calibri,Calibri_MSFontService,sans-serif" font-weight="400" font-size="73" transform="matrix(1 0 0 1 2201.67 1243)">GeMM</text><text font-family="Calibri,Calibri_MSFontService,sans-serif" font-weight="400" font-size="73" transform="matrix(1 0 0 1 2409.64 1243)">, etc.)</text><rect x="2963.5" y="1182.5" width="1126" height="115" stroke="#404040" stroke-width="4.58333" stroke-miterlimit="8" fill="#FFFFFF"/><text font-family="Calibri,Calibri_MSFontService,sans-serif" font-weight="400" font-size="83" transform="matrix(1 0 0 1 3012.94 1267)">GPU</text><text font-family="Calibri,Calibri_MSFontService,sans-serif" font-weight="400" font-size="83" transform="matrix(1 0 0 1 3160.18 1267)">-</text><text font-family="Calibri,Calibri_MSFontService,sans-serif" font-weight="400" font-size="83" transform="matrix(1 0 0 1 3185.39 1267)">controlled DMA Interface</text><rect x="3539.5" y="1041.5" width="550" height="114" stroke="#404040" stroke-width="4.58333" stroke-miterlimit="8" fill="#FFFFFF"/><text font-family="Calibri,Calibri_MSFontService,sans-serif" font-weight="400" font-size="83" transform="matrix(1 0 0 1 3576.62 1126)">Collective OPs</text><rect x="2962.5" y="1041.5" width="551" height="114" stroke="#404040" stroke-width="4.58333" stroke-miterlimit="8" fill="#FFFFFF"/><text font-family="Calibri,Calibri_MSFontService,sans-serif" font-weight="400" font-size="83" transform="matrix(1 0 0 1 2985.68 1126)">Send/</text><text font-family="Calibri,Calibri_MSFontService,sans-serif" font-weight="400" font-size="83" transform="matrix(1 0 0 1 3183.91 1126)">Recv</text><text font-family="Calibri,Calibri_MSFontService,sans-serif" font-weight="400" font-size="83" transform="matrix(1 0 0 1 3360.94 1126)">OPs</text><rect x="1820.5" y="906.5" width="2269" height="106" stroke="#404040" stroke-width="4.58333" stroke-miterlimit="8" fill="#FFFFFF"/><text font-family="Calibri,Calibri_MSFontService,sans-serif" font-weight="400" font-size="83" transform="matrix(1 0 0 1 2793.19 987)">DL Model</text><rect x="229" y="1042" width="567" height="89" fill="#FFFFFF"/><text fill="#4472C4" font-family="Arial,Arial_MSFontService,sans-serif" font-weight="700" font-size="73" transform="matrix(1 0 0 1 249.471 1113)">Runtime Executor</text><rect x="233" y="1133" width="1408" height="309" fill="#8FAADC"/><rect x="245.5" y="1319.5" width="657" height="105" stroke="#404040" stroke-width="4.58333" stroke-miterlimit="8" fill="#FFFFFF"/><text font-family="Calibri,Calibri_MSFontService,sans-serif" font-weight="400" font-size="73" transform="matrix(1 0 0 1 444.287 1397)">GPU HW</text><rect x="245.5" y="1145.5" width="1377" height="105" stroke="#404040" stroke-width="4.58333" stroke-miterlimit="8" fill="#FFFFFF"/><text fill="#4472C4" font-family="Calibri,Calibri_MSFontService,sans-serif" font-weight="700" font-size="73" transform="matrix(1 0 0 1 676.589 1222)">GPU Loop Kernel</text><rect x="245.5" y="912.5" width="1377" height="105" stroke="#404040" stroke-width="4.58333" stroke-miterlimit="8" fill="#FFFFFF"/><text fill="#4472C4" font-family="Calibri,Calibri_MSFontService,sans-serif" font-weight="700" font-size="73" transform="matrix(1 0 0 1 521.904 989)">Offline Operator Scheduler</text><rect x="245.5" y="769.5" width="1376" height="105" stroke="#404040" stroke-width="4.58333" stroke-miterlimit="8" fill="#FFFFFF"/><text font-family="Calibri,Calibri_MSFontService,sans-serif" font-weight="400" font-size="73" transform="matrix(1 0 0 1 655.353 846)">Operational Graph</text><rect x="965.5" y="1319.5" width="657" height="105" stroke="#404040" stroke-width="4.58333" stroke-miterlimit="8" fill="#FFFFFF"/><text font-family="Calibri,Calibri_MSFontService,sans-serif" font-weight="400" font-size="73" transform="matrix(1 0 0 1 1240.9 1396)">NIC</text><path d="M5.86473 17.1417 6.20893 60.7205-5.24905 60.811-5.59324 17.2322ZM-17.006 23.0517 0 0 17.368 22.7802ZM17.6217 54.9011 0.615682 77.9528-16.7523 55.1726Z" transform="matrix(-1 0 0 1 581.116 1243.5)"/><path d="M5.86473 17.1417 6.20893 60.7205-5.24905 60.811-5.59324 17.2322ZM-17.006 23.0517 0 0 17.368 22.7802ZM17.6217 54.9011 0.615682 77.9528-16.7523 55.1726Z" transform="matrix(-1 0 0 1 1294.12 1243.5)"/><path d="M9.16619-0.0939455 9.50003 32.4791-8.83234 32.667-9.16619 0.0939455ZM27.7385 23.125 0.615682 60.0716-27.2587 23.6887Z" transform="matrix(-1 0 0 1 931.616 863)"/><path d="M9.16658-0.0394904 9.66379 115.374-8.66937 115.453-9.16658 0.0394904ZM27.9575 106.129 0.615682 142.913-27.042 106.366Z" transform="matrix(-1 0 0 1 931.616 1008)"/><rect x="266" y="638" width="1327" height="100" fill="#FFFFFF"/><text font-family="Arial,Arial_MSFontService,sans-serif" font-weight="700" font-size="83" transform="matrix(1 0 0 1 289.896 718)">GPU</text><text font-family="Arial,Arial_MSFontService,sans-serif" font-weight="700" font-size="83" transform="matrix(1 0 0 1 468.646 718)">-</text><text font-family="Arial,Arial_MSFontService,sans-serif" font-weight="700" font-size="83" transform="matrix(1 0 0 1 496.146 718)">driven System Architecture</text><path d="M0 0 159.265 383.572" stroke="#404040" stroke-width="5.72917" stroke-miterlimit="8" stroke-dasharray="22.9167 17.1875" fill="#FFFFFF" fill-rule="evenodd" transform="matrix(1 0 0 -1 1621 1151.57)"/><path d="M1621 1250 1771.84 1456.77" stroke="#404040" stroke-width="5.72917" stroke-miterlimit="8" stroke-dasharray="22.9167 17.1875" fill="#FFFFFF" fill-rule="evenodd"/></g></svg>